<?xml version="1.0" encoding="UTF-8" standalone="no"?>
<!DOCTYPE svg PUBLIC "-//W3C//DTD SVG 1.1//EN"
 "http://www.w3.org/Graphics/SVG/1.1/DTD/svg11.dtd">
<!-- Generated by graphviz version 5.0.0 (20220707.1540)
 -->
<!-- Title: DependenciesGraph Pages: 1 -->
<svg width="369pt" height="150pt"
 viewBox="0.00 0.00 369.00 150.00" xmlns="http://www.w3.org/2000/svg" xmlns:xlink="http://www.w3.org/1999/xlink">
<g id="graph0" class="graph" transform="scale(1 1) rotate(0) translate(4 146)">
<title>DependenciesGraph</title>
<polygon fill="white" stroke="transparent" points="-4,4 -4,-146 365,-146 365,4 -4,4"/>
<!-- /Users/runner/work/LunchPlaces/LunchPlaces/Packages/Mock -->
<g id="node1" class="node">
<title>/Users/runner/work/LunchPlaces/LunchPlaces/Packages/Mock</title>
<polygon fill="none" stroke="black" points="359,-142 2,-142 2,-89 359,-89 359,-142"/>
<text text-anchor="middle" x="180.5" y="-126.8" font-family="Times,serif" font-size="14.00">mock</text>
<text text-anchor="middle" x="180.5" y="-111.8" font-family="Times,serif" font-size="14.00">/Users/runner/work/LunchPlaces/LunchPlaces/Packages/Mock</text>
<text text-anchor="middle" x="180.5" y="-96.8" font-family="Times,serif" font-size="14.00">unspecified</text>
</g>
<!-- /Users/runner/work/LunchPlaces/LunchPlaces/Packages/Model -->
<g id="node2" class="node">
<title>/Users/runner/work/LunchPlaces/LunchPlaces/Packages/Model</title>
<polygon fill="none" stroke="black" points="361,-53 0,-53 0,0 361,0 361,-53"/>
<text text-anchor="middle" x="180.5" y="-37.8" font-family="Times,serif" font-size="14.00">model</text>
<text text-anchor="middle" x="180.5" y="-22.8" font-family="Times,serif" font-size="14.00">/Users/runner/work/LunchPlaces/LunchPlaces/Packages/Model</text>
<text text-anchor="middle" x="180.5" y="-7.8" font-family="Times,serif" font-size="14.00">unspecified</text>
</g>
<!-- /Users/runner/work/LunchPlaces/LunchPlaces/Packages/Mock&#45;&gt;/Users/runner/work/LunchPlaces/LunchPlaces/Packages/Model -->
<g id="edge1" class="edge">
<title>/Users/runner/work/LunchPlaces/LunchPlaces/Packages/Mock&#45;&gt;/Users/runner/work/LunchPlaces/LunchPlaces/Packages/Model</title>
<path fill="none" stroke="black" d="M180.5,-88.87C180.5,-80.89 180.5,-71.93 180.5,-63.38"/>
<polygon fill="black" stroke="black" points="184,-63.25 180.5,-53.25 177,-63.25 184,-63.25"/>
</g>
</g>
</svg>
