<?xml version="1.0" encoding="UTF-8" standalone="no"?>
<!DOCTYPE svg PUBLIC "-//W3C//DTD SVG 1.1//EN"
 "http://www.w3.org/Graphics/SVG/1.1/DTD/svg11.dtd">
<!-- Generated by graphviz version 5.0.0 (20220707.1540)
 -->
<!-- Title: DependenciesGraph Pages: 1 -->
<svg width="2359pt" height="417pt"
 viewBox="0.00 0.00 2358.50 417.00" xmlns="http://www.w3.org/2000/svg" xmlns:xlink="http://www.w3.org/1999/xlink">
<g id="graph0" class="graph" transform="scale(1 1) rotate(0) translate(4 413)">
<title>DependenciesGraph</title>
<polygon fill="white" stroke="transparent" points="-4,4 -4,-413 2354.5,-413 2354.5,4 -4,4"/>
<!-- /Users/runner/work/LunchPlaces/LunchPlaces/Packages/Features -->
<g id="node1" class="node">
<title>/Users/runner/work/LunchPlaces/LunchPlaces/Packages/Features</title>
<polygon fill="none" stroke="black" points="1320,-409 949,-409 949,-356 1320,-356 1320,-409"/>
<text text-anchor="middle" x="1134.5" y="-393.8" font-family="Times,serif" font-size="14.00">features</text>
<text text-anchor="middle" x="1134.5" y="-378.8" font-family="Times,serif" font-size="14.00">/Users/runner/work/LunchPlaces/LunchPlaces/Packages/Features</text>
<text text-anchor="middle" x="1134.5" y="-363.8" font-family="Times,serif" font-size="14.00">unspecified</text>
</g>
<!-- /Users/runner/work/LunchPlaces/LunchPlaces/Packages/Cache -->
<g id="node2" class="node">
<title>/Users/runner/work/LunchPlaces/LunchPlaces/Packages/Cache</title>
<polygon fill="none" stroke="black" points="359,-320 0,-320 0,-267 359,-267 359,-320"/>
<text text-anchor="middle" x="179.5" y="-304.8" font-family="Times,serif" font-size="14.00">cache</text>
<text text-anchor="middle" x="179.5" y="-289.8" font-family="Times,serif" font-size="14.00">/Users/runner/work/LunchPlaces/LunchPlaces/Packages/Cache</text>
<text text-anchor="middle" x="179.5" y="-274.8" font-family="Times,serif" font-size="14.00">unspecified</text>
</g>
<!-- /Users/runner/work/LunchPlaces/LunchPlaces/Packages/Features&#45;&gt;/Users/runner/work/LunchPlaces/LunchPlaces/Packages/Cache -->
<g id="edge1" class="edge">
<title>/Users/runner/work/LunchPlaces/LunchPlaces/Packages/Features&#45;&gt;/Users/runner/work/LunchPlaces/LunchPlaces/Packages/Cache</title>
<path fill="none" stroke="black" d="M948.95,-369.11C794.71,-358.19 569.57,-340.8 373.5,-320 372.17,-319.86 370.83,-319.72 369.5,-319.57"/>
<polygon fill="black" stroke="black" points="369.47,-316.05 359.14,-318.43 368.7,-323.01 369.47,-316.05"/>
</g>
<!-- /Users/runner/work/LunchPlaces/LunchPlaces/Packages/Core -->
<g id="node3" class="node">
<title>/Users/runner/work/LunchPlaces/LunchPlaces/Packages/Core</title>
<polygon fill="none" stroke="black" points="421,-231 70,-231 70,-178 421,-178 421,-231"/>
<text text-anchor="middle" x="245.5" y="-215.8" font-family="Times,serif" font-size="14.00">core</text>
<text text-anchor="middle" x="245.5" y="-200.8" font-family="Times,serif" font-size="14.00">/Users/runner/work/LunchPlaces/LunchPlaces/Packages/Core</text>
<text text-anchor="middle" x="245.5" y="-185.8" font-family="Times,serif" font-size="14.00">unspecified</text>
</g>
<!-- /Users/runner/work/LunchPlaces/LunchPlaces/Packages/Features&#45;&gt;/Users/runner/work/LunchPlaces/LunchPlaces/Packages/Core -->
<g id="edge2" class="edge">
<title>/Users/runner/work/LunchPlaces/LunchPlaces/Packages/Features&#45;&gt;/Users/runner/work/LunchPlaces/LunchPlaces/Packages/Core</title>
<path fill="none" stroke="black" d="M948.92,-373.77C748.87,-364.18 452.74,-345.89 406.5,-320 380.98,-305.71 389.84,-285.88 367.5,-267 353.21,-254.92 336.14,-244.45 319.36,-235.73"/>
<polygon fill="black" stroke="black" points="320.6,-232.44 310.09,-231.08 317.45,-238.69 320.6,-232.44"/>
</g>
<!-- /Users/runner/work/LunchPlaces/LunchPlaces/Packages/Localization -->
<g id="node4" class="node">
<title>/Users/runner/work/LunchPlaces/LunchPlaces/Packages/Localization</title>
<polygon fill="none" stroke="black" points="1558.5,-231 1166.5,-231 1166.5,-178 1558.5,-178 1558.5,-231"/>
<text text-anchor="middle" x="1362.5" y="-215.8" font-family="Times,serif" font-size="14.00">localization</text>
<text text-anchor="middle" x="1362.5" y="-200.8" font-family="Times,serif" font-size="14.00">/Users/runner/work/LunchPlaces/LunchPlaces/Packages/Localization</text>
<text text-anchor="middle" x="1362.5" y="-185.8" font-family="Times,serif" font-size="14.00">unspecified</text>
</g>
<!-- /Users/runner/work/LunchPlaces/LunchPlaces/Packages/Features&#45;&gt;/Users/runner/work/LunchPlaces/LunchPlaces/Packages/Localization -->
<g id="edge3" class="edge">
<title>/Users/runner/work/LunchPlaces/LunchPlaces/Packages/Features&#45;&gt;/Users/runner/work/LunchPlaces/LunchPlaces/Packages/Localization</title>
<path fill="none" stroke="black" d="M1298.81,-356C1317.28,-347.17 1334.2,-335.47 1347.5,-320 1365.8,-298.71 1368.57,-266.47 1367.32,-241.61"/>
<polygon fill="black" stroke="black" points="1370.8,-241.18 1366.57,-231.47 1363.82,-241.7 1370.8,-241.18"/>
</g>
<!-- /Users/runner/work/LunchPlaces/LunchPlaces/Packages/Mock -->
<g id="node5" class="node">
<title>/Users/runner/work/LunchPlaces/LunchPlaces/Packages/Mock</title>
<polygon fill="none" stroke="black" points="1110,-231 753,-231 753,-178 1110,-178 1110,-231"/>
<text text-anchor="middle" x="931.5" y="-215.8" font-family="Times,serif" font-size="14.00">mock</text>
<text text-anchor="middle" x="931.5" y="-200.8" font-family="Times,serif" font-size="14.00">/Users/runner/work/LunchPlaces/LunchPlaces/Packages/Mock</text>
<text text-anchor="middle" x="931.5" y="-185.8" font-family="Times,serif" font-size="14.00">unspecified</text>
</g>
<!-- /Users/runner/work/LunchPlaces/LunchPlaces/Packages/Features&#45;&gt;/Users/runner/work/LunchPlaces/LunchPlaces/Packages/Mock -->
<g id="edge4" class="edge">
<title>/Users/runner/work/LunchPlaces/LunchPlaces/Packages/Features&#45;&gt;/Users/runner/work/LunchPlaces/LunchPlaces/Packages/Mock</title>
<path fill="none" stroke="black" d="M998.78,-355.93C963.48,-346.4 932.29,-334.34 921.5,-320 904.74,-297.71 909.26,-265.64 916.82,-241.1"/>
<polygon fill="black" stroke="black" points="920.2,-242.03 920.07,-231.44 913.56,-239.8 920.2,-242.03"/>
</g>
<!-- /Users/runner/work/LunchPlaces/LunchPlaces/Packages/PlacesAPI -->
<g id="node7" class="node">
<title>/Users/runner/work/LunchPlaces/LunchPlaces/Packages/PlacesAPI</title>
<polygon fill="none" stroke="black" points="797,-320 416,-320 416,-267 797,-267 797,-320"/>
<text text-anchor="middle" x="606.5" y="-304.8" font-family="Times,serif" font-size="14.00">placesapi</text>
<text text-anchor="middle" x="606.5" y="-289.8" font-family="Times,serif" font-size="14.00">/Users/runner/work/LunchPlaces/LunchPlaces/Packages/PlacesAPI</text>
<text text-anchor="middle" x="606.5" y="-274.8" font-family="Times,serif" font-size="14.00">unspecified</text>
</g>
<!-- /Users/runner/work/LunchPlaces/LunchPlaces/Packages/Features&#45;&gt;/Users/runner/work/LunchPlaces/LunchPlaces/Packages/PlacesAPI -->
<g id="edge6" class="edge">
<title>/Users/runner/work/LunchPlaces/LunchPlaces/Packages/Features&#45;&gt;/Users/runner/work/LunchPlaces/LunchPlaces/Packages/PlacesAPI</title>
<path fill="none" stroke="black" d="M979.65,-355.98C914.24,-345.21 837.98,-332.64 771.5,-321.69"/>
<polygon fill="black" stroke="black" points="771.78,-318.19 761.35,-320.01 770.64,-325.09 771.78,-318.19"/>
</g>
<!-- /Users/runner/work/LunchPlaces/LunchPlaces/Packages/UIComponents -->
<g id="node9" class="node">
<title>/Users/runner/work/LunchPlaces/LunchPlaces/Packages/UIComponents</title>
<polygon fill="none" stroke="black" points="1338.5,-320 930.5,-320 930.5,-267 1338.5,-267 1338.5,-320"/>
<text text-anchor="middle" x="1134.5" y="-304.8" font-family="Times,serif" font-size="14.00">uicomponents</text>
<text text-anchor="middle" x="1134.5" y="-289.8" font-family="Times,serif" font-size="14.00">/Users/runner/work/LunchPlaces/LunchPlaces/Packages/UIComponents</text>
<text text-anchor="middle" x="1134.5" y="-274.8" font-family="Times,serif" font-size="14.00">unspecified</text>
</g>
<!-- /Users/runner/work/LunchPlaces/LunchPlaces/Packages/Features&#45;&gt;/Users/runner/work/LunchPlaces/LunchPlaces/Packages/UIComponents -->
<g id="edge10" class="edge">
<title>/Users/runner/work/LunchPlaces/LunchPlaces/Packages/Features&#45;&gt;/Users/runner/work/LunchPlaces/LunchPlaces/Packages/UIComponents</title>
<path fill="none" stroke="black" d="M1134.5,-355.87C1134.5,-347.89 1134.5,-338.93 1134.5,-330.38"/>
<polygon fill="black" stroke="black" points="1138,-330.25 1134.5,-320.25 1131,-330.25 1138,-330.25"/>
</g>
<!-- https://github.com/pointfreeco/swift&#45;composable&#45;architecture.git -->
<g id="node10" class="node">
<title>https://github.com/pointfreeco/swift&#45;composable&#45;architecture.git</title>
<polygon fill="none" stroke="black" points="1944.5,-231 1576.5,-231 1576.5,-178 1944.5,-178 1944.5,-231"/>
<text text-anchor="middle" x="1760.5" y="-215.8" font-family="Times,serif" font-size="14.00">swift&#45;composable&#45;architecture</text>
<text text-anchor="middle" x="1760.5" y="-200.8" font-family="Times,serif" font-size="14.00">https://github.com/pointfreeco/swift&#45;composable&#45;architecture.git</text>
<text text-anchor="middle" x="1760.5" y="-185.8" font-family="Times,serif" font-size="14.00">0.38.3</text>
</g>
<!-- /Users/runner/work/LunchPlaces/LunchPlaces/Packages/Features&#45;&gt;https://github.com/pointfreeco/swift&#45;composable&#45;architecture.git -->
<g id="edge14" class="edge">
<title>/Users/runner/work/LunchPlaces/LunchPlaces/Packages/Features&#45;&gt;https://github.com/pointfreeco/swift&#45;composable&#45;architecture.git</title>
<path fill="none" stroke="black" d="M1281.83,-355.97C1312.33,-347.2 1343.4,-335.52 1370.5,-320 1399.41,-303.44 1394,-282.47 1423.5,-267 1439.06,-258.84 1512.09,-245.1 1586.2,-232.68"/>
<polygon fill="black" stroke="black" points="1586.9,-236.11 1596.19,-231.02 1585.75,-229.21 1586.9,-236.11"/>
</g>
<!-- https://github.com/pointfreeco/swift&#45;overture.git -->
<g id="node17" class="node">
<title>https://github.com/pointfreeco/swift&#45;overture.git</title>
<polygon fill="none" stroke="black" points="2074.5,-320 1794.5,-320 1794.5,-267 2074.5,-267 2074.5,-320"/>
<text text-anchor="middle" x="1934.5" y="-304.8" font-family="Times,serif" font-size="14.00">swift&#45;overture</text>
<text text-anchor="middle" x="1934.5" y="-289.8" font-family="Times,serif" font-size="14.00">https://github.com/pointfreeco/swift&#45;overture.git</text>
<text text-anchor="middle" x="1934.5" y="-274.8" font-family="Times,serif" font-size="14.00">0.5.0</text>
</g>
<!-- /Users/runner/work/LunchPlaces/LunchPlaces/Packages/Features&#45;&gt;https://github.com/pointfreeco/swift&#45;overture.git -->
<g id="edge23" class="edge">
<title>/Users/runner/work/LunchPlaces/LunchPlaces/Packages/Features&#45;&gt;https://github.com/pointfreeco/swift&#45;overture.git</title>
<path fill="none" stroke="black" d="M1320.12,-367.7C1447.91,-357.31 1621.77,-341.41 1783.99,-320.16"/>
<polygon fill="black" stroke="black" points="1784.71,-323.6 1794.17,-318.82 1783.79,-316.66 1784.71,-323.6"/>
</g>
<!-- https://github.com/pointfreeco/composable&#45;core&#45;location.git -->
<g id="node18" class="node">
<title>https://github.com/pointfreeco/composable&#45;core&#45;location.git</title>
<polygon fill="none" stroke="black" points="1776.5,-320 1432.5,-320 1432.5,-267 1776.5,-267 1776.5,-320"/>
<text text-anchor="middle" x="1604.5" y="-304.8" font-family="Times,serif" font-size="14.00">composable&#45;core&#45;location</text>
<text text-anchor="middle" x="1604.5" y="-289.8" font-family="Times,serif" font-size="14.00">https://github.com/pointfreeco/composable&#45;core&#45;location.git</text>
<text text-anchor="middle" x="1604.5" y="-274.8" font-family="Times,serif" font-size="14.00">0.2.0</text>
</g>
<!-- /Users/runner/work/LunchPlaces/LunchPlaces/Packages/Features&#45;&gt;https://github.com/pointfreeco/composable&#45;core&#45;location.git -->
<g id="edge24" class="edge">
<title>/Users/runner/work/LunchPlaces/LunchPlaces/Packages/Features&#45;&gt;https://github.com/pointfreeco/composable&#45;core&#45;location.git</title>
<path fill="none" stroke="black" d="M1272.34,-355.98C1330.21,-345.27 1397.62,-332.8 1456.53,-321.89"/>
<polygon fill="black" stroke="black" points="1457.47,-325.28 1466.66,-320.01 1456.19,-318.39 1457.47,-325.28"/>
</g>
<!-- /Users/runner/work/LunchPlaces/LunchPlaces/Packages/Model -->
<g id="node6" class="node">
<title>/Users/runner/work/LunchPlaces/LunchPlaces/Packages/Model</title>
<polygon fill="none" stroke="black" points="1047,-142 686,-142 686,-89 1047,-89 1047,-142"/>
<text text-anchor="middle" x="866.5" y="-126.8" font-family="Times,serif" font-size="14.00">model</text>
<text text-anchor="middle" x="866.5" y="-111.8" font-family="Times,serif" font-size="14.00">/Users/runner/work/LunchPlaces/LunchPlaces/Packages/Model</text>
<text text-anchor="middle" x="866.5" y="-96.8" font-family="Times,serif" font-size="14.00">unspecified</text>
</g>
<!-- /Users/runner/work/LunchPlaces/LunchPlaces/Packages/Mock&#45;&gt;/Users/runner/work/LunchPlaces/LunchPlaces/Packages/Model -->
<g id="edge5" class="edge">
<title>/Users/runner/work/LunchPlaces/LunchPlaces/Packages/Mock&#45;&gt;/Users/runner/work/LunchPlaces/LunchPlaces/Packages/Model</title>
<path fill="none" stroke="black" d="M912.35,-177.87C905.93,-169.27 898.66,-159.55 891.84,-150.42"/>
<polygon fill="black" stroke="black" points="894.53,-148.17 885.74,-142.25 888.92,-152.36 894.53,-148.17"/>
</g>
<!-- /Users/runner/work/LunchPlaces/LunchPlaces/Packages/PlacesAPI&#45;&gt;/Users/runner/work/LunchPlaces/LunchPlaces/Packages/Core -->
<g id="edge7" class="edge">
<title>/Users/runner/work/LunchPlaces/LunchPlaces/Packages/PlacesAPI&#45;&gt;/Users/runner/work/LunchPlaces/LunchPlaces/Packages/Core</title>
<path fill="none" stroke="black" d="M500.63,-266.98C456.82,-256.43 405.9,-244.16 361.12,-233.36"/>
<polygon fill="black" stroke="black" points="361.91,-229.95 351.37,-231.01 360.27,-236.76 361.91,-229.95"/>
</g>
<!-- /Users/runner/work/LunchPlaces/LunchPlaces/Packages/PlacesAPI&#45;&gt;/Users/runner/work/LunchPlaces/LunchPlaces/Packages/Model -->
<g id="edge8" class="edge">
<title>/Users/runner/work/LunchPlaces/LunchPlaces/Packages/PlacesAPI&#45;&gt;/Users/runner/work/LunchPlaces/LunchPlaces/Packages/Model</title>
<path fill="none" stroke="black" d="M509.99,-266.86C493.56,-258.14 478.57,-246.51 468.5,-231 455.67,-211.24 453.17,-195.88 468.5,-178 496.19,-145.7 587.48,-130.22 675.65,-122.85"/>
<polygon fill="black" stroke="black" points="676.14,-126.33 685.83,-122.04 675.58,-119.35 676.14,-126.33"/>
</g>
<!-- http://github.com/objcio/tiny&#45;networking.git -->
<g id="node8" class="node">
<title>http://github.com/objcio/tiny&#45;networking.git</title>
<polygon fill="none" stroke="black" points="735,-231 478,-231 478,-178 735,-178 735,-231"/>
<text text-anchor="middle" x="606.5" y="-215.8" font-family="Times,serif" font-size="14.00">tiny&#45;networking</text>
<text text-anchor="middle" x="606.5" y="-200.8" font-family="Times,serif" font-size="14.00">http://github.com/objcio/tiny&#45;networking.git</text>
<text text-anchor="middle" x="606.5" y="-185.8" font-family="Times,serif" font-size="14.00">unspecified</text>
</g>
<!-- /Users/runner/work/LunchPlaces/LunchPlaces/Packages/PlacesAPI&#45;&gt;http://github.com/objcio/tiny&#45;networking.git -->
<g id="edge9" class="edge">
<title>/Users/runner/work/LunchPlaces/LunchPlaces/Packages/PlacesAPI&#45;&gt;http://github.com/objcio/tiny&#45;networking.git</title>
<path fill="none" stroke="black" d="M606.5,-266.87C606.5,-258.89 606.5,-249.93 606.5,-241.38"/>
<polygon fill="black" stroke="black" points="610,-241.25 606.5,-231.25 603,-241.25 610,-241.25"/>
</g>
<!-- /Users/runner/work/LunchPlaces/LunchPlaces/Packages/UIComponents&#45;&gt;/Users/runner/work/LunchPlaces/LunchPlaces/Packages/Localization -->
<g id="edge11" class="edge">
<title>/Users/runner/work/LunchPlaces/LunchPlaces/Packages/UIComponents&#45;&gt;/Users/runner/work/LunchPlaces/LunchPlaces/Packages/Localization</title>
<path fill="none" stroke="black" d="M1201.37,-266.98C1227.93,-256.85 1258.64,-245.13 1286.08,-234.66"/>
<polygon fill="black" stroke="black" points="1287.54,-237.85 1295.63,-231.01 1285.04,-231.31 1287.54,-237.85"/>
</g>
<!-- /Users/runner/work/LunchPlaces/LunchPlaces/Packages/UIComponents&#45;&gt;/Users/runner/work/LunchPlaces/LunchPlaces/Packages/Mock -->
<g id="edge12" class="edge">
<title>/Users/runner/work/LunchPlaces/LunchPlaces/Packages/UIComponents&#45;&gt;/Users/runner/work/LunchPlaces/LunchPlaces/Packages/Mock</title>
<path fill="none" stroke="black" d="M1074.96,-266.98C1051.62,-256.98 1024.69,-245.44 1000.5,-235.07"/>
<polygon fill="black" stroke="black" points="1001.6,-231.74 991.03,-231.01 998.85,-238.17 1001.6,-231.74"/>
</g>
<!-- /Users/runner/work/LunchPlaces/LunchPlaces/Packages/UIComponents&#45;&gt;/Users/runner/work/LunchPlaces/LunchPlaces/Packages/Model -->
<g id="edge13" class="edge">
<title>/Users/runner/work/LunchPlaces/LunchPlaces/Packages/UIComponents&#45;&gt;/Users/runner/work/LunchPlaces/LunchPlaces/Packages/Model</title>
<path fill="none" stroke="black" d="M1138.74,-266.82C1141.43,-241.12 1141.06,-202.02 1119.5,-178 1107.36,-164.47 1077.87,-153.37 1043.13,-144.51"/>
<polygon fill="black" stroke="black" points="1043.75,-141.06 1033.21,-142.07 1042.08,-147.85 1043.75,-141.06"/>
</g>
<!-- https://github.com/pointfreeco/combine&#45;schedulers -->
<g id="node11" class="node">
<title>https://github.com/pointfreeco/combine&#45;schedulers</title>
<polygon fill="none" stroke="black" points="1359.5,-142 1065.5,-142 1065.5,-89 1359.5,-89 1359.5,-142"/>
<text text-anchor="middle" x="1212.5" y="-126.8" font-family="Times,serif" font-size="14.00">combine&#45;schedulers</text>
<text text-anchor="middle" x="1212.5" y="-111.8" font-family="Times,serif" font-size="14.00">https://github.com/pointfreeco/combine&#45;schedulers</text>
<text text-anchor="middle" x="1212.5" y="-96.8" font-family="Times,serif" font-size="14.00">0.6.0</text>
</g>
<!-- https://github.com/pointfreeco/swift&#45;composable&#45;architecture.git&#45;&gt;https://github.com/pointfreeco/combine&#45;schedulers -->
<g id="edge15" class="edge">
<title>https://github.com/pointfreeco/swift&#45;composable&#45;architecture.git&#45;&gt;https://github.com/pointfreeco/combine&#45;schedulers</title>
<path fill="none" stroke="black" d="M1596.87,-177.95C1526.83,-166.96 1444.14,-153.93 1369.5,-142 1369.4,-141.98 1369.3,-141.97 1369.19,-141.95"/>
<polygon fill="black" stroke="black" points="1370.01,-138.54 1359.58,-140.41 1368.9,-145.45 1370.01,-138.54"/>
</g>
<!-- https://github.com/pointfreeco/xctest&#45;dynamic&#45;overlay -->
<g id="node12" class="node">
<title>https://github.com/pointfreeco/xctest&#45;dynamic&#45;overlay</title>
<polygon fill="none" stroke="black" points="1681.5,-53 1367.5,-53 1367.5,0 1681.5,0 1681.5,-53"/>
<text text-anchor="middle" x="1524.5" y="-37.8" font-family="Times,serif" font-size="14.00">xctest&#45;dynamic&#45;overlay</text>
<text text-anchor="middle" x="1524.5" y="-22.8" font-family="Times,serif" font-size="14.00">https://github.com/pointfreeco/xctest&#45;dynamic&#45;overlay</text>
<text text-anchor="middle" x="1524.5" y="-7.8" font-family="Times,serif" font-size="14.00">0.3.3</text>
</g>
<!-- https://github.com/pointfreeco/swift&#45;composable&#45;architecture.git&#45;&gt;https://github.com/pointfreeco/xctest&#45;dynamic&#45;overlay -->
<g id="edge22" class="edge">
<title>https://github.com/pointfreeco/swift&#45;composable&#45;architecture.git&#45;&gt;https://github.com/pointfreeco/xctest&#45;dynamic&#45;overlay</title>
<path fill="none" stroke="black" d="M1894.4,-177.94C1929.6,-168.38 1960.77,-156.31 1971.5,-142 1985.64,-123.16 1986.98,-106.76 1971.5,-89 1952.75,-67.5 1810.64,-50.56 1691.6,-39.94"/>
<polygon fill="black" stroke="black" points="1691.89,-36.46 1681.62,-39.06 1691.28,-43.43 1691.89,-36.46"/>
</g>
<!-- https://github.com/pointfreeco/swift&#45;case&#45;paths -->
<g id="node13" class="node">
<title>https://github.com/pointfreeco/swift&#45;case&#45;paths</title>
<polygon fill="none" stroke="black" points="1962,-142 1689,-142 1689,-89 1962,-89 1962,-142"/>
<text text-anchor="middle" x="1825.5" y="-126.8" font-family="Times,serif" font-size="14.00">swift&#45;case&#45;paths</text>
<text text-anchor="middle" x="1825.5" y="-111.8" font-family="Times,serif" font-size="14.00">https://github.com/pointfreeco/swift&#45;case&#45;paths</text>
<text text-anchor="middle" x="1825.5" y="-96.8" font-family="Times,serif" font-size="14.00">0.9.1</text>
</g>
<!-- https://github.com/pointfreeco/swift&#45;composable&#45;architecture.git&#45;&gt;https://github.com/pointfreeco/swift&#45;case&#45;paths -->
<g id="edge17" class="edge">
<title>https://github.com/pointfreeco/swift&#45;composable&#45;architecture.git&#45;&gt;https://github.com/pointfreeco/swift&#45;case&#45;paths</title>
<path fill="none" stroke="black" d="M1779.65,-177.87C1786.07,-169.27 1793.34,-159.55 1800.16,-150.42"/>
<polygon fill="black" stroke="black" points="1803.08,-152.36 1806.26,-142.25 1797.47,-148.17 1803.08,-152.36"/>
</g>
<!-- https://github.com/pointfreeco/swift&#45;custom&#45;dump -->
<g id="node14" class="node">
<title>https://github.com/pointfreeco/swift&#45;custom&#45;dump</title>
<polygon fill="none" stroke="black" points="1671,-142 1378,-142 1378,-89 1671,-89 1671,-142"/>
<text text-anchor="middle" x="1524.5" y="-126.8" font-family="Times,serif" font-size="14.00">swift&#45;custom&#45;dump</text>
<text text-anchor="middle" x="1524.5" y="-111.8" font-family="Times,serif" font-size="14.00">https://github.com/pointfreeco/swift&#45;custom&#45;dump</text>
<text text-anchor="middle" x="1524.5" y="-96.8" font-family="Times,serif" font-size="14.00">0.5.0</text>
</g>
<!-- https://github.com/pointfreeco/swift&#45;composable&#45;architecture.git&#45;&gt;https://github.com/pointfreeco/swift&#45;custom&#45;dump -->
<g id="edge18" class="edge">
<title>https://github.com/pointfreeco/swift&#45;composable&#45;architecture.git&#45;&gt;https://github.com/pointfreeco/swift&#45;custom&#45;dump</title>
<path fill="none" stroke="black" d="M1691.29,-177.98C1663.67,-167.8 1631.73,-156.03 1603.23,-145.52"/>
<polygon fill="black" stroke="black" points="1604.31,-142.19 1593.71,-142.01 1601.88,-148.76 1604.31,-142.19"/>
</g>
<!-- https://github.com/pointfreeco/swift&#45;identified&#45;collections -->
<g id="node15" class="node">
<title>https://github.com/pointfreeco/swift&#45;identified&#45;collections</title>
<polygon fill="none" stroke="black" points="2350.5,-142 2018.5,-142 2018.5,-89 2350.5,-89 2350.5,-142"/>
<text text-anchor="middle" x="2184.5" y="-126.8" font-family="Times,serif" font-size="14.00">swift&#45;identified&#45;collections</text>
<text text-anchor="middle" x="2184.5" y="-111.8" font-family="Times,serif" font-size="14.00">https://github.com/pointfreeco/swift&#45;identified&#45;collections</text>
<text text-anchor="middle" x="2184.5" y="-96.8" font-family="Times,serif" font-size="14.00">0.4.0</text>
</g>
<!-- https://github.com/pointfreeco/swift&#45;composable&#45;architecture.git&#45;&gt;https://github.com/pointfreeco/swift&#45;identified&#45;collections -->
<g id="edge20" class="edge">
<title>https://github.com/pointfreeco/swift&#45;composable&#45;architecture.git&#45;&gt;https://github.com/pointfreeco/swift&#45;identified&#45;collections</title>
<path fill="none" stroke="black" d="M1884.85,-177.98C1936.84,-167.32 1997.36,-154.9 2050.35,-144.03"/>
<polygon fill="black" stroke="black" points="2051.06,-147.45 2060.15,-142.01 2049.65,-140.6 2051.06,-147.45"/>
</g>
<!-- https://github.com/pointfreeco/combine&#45;schedulers&#45;&gt;https://github.com/pointfreeco/xctest&#45;dynamic&#45;overlay -->
<g id="edge16" class="edge">
<title>https://github.com/pointfreeco/combine&#45;schedulers&#45;&gt;https://github.com/pointfreeco/xctest&#45;dynamic&#45;overlay</title>
<path fill="none" stroke="black" d="M1304,-88.98C1341.46,-78.54 1384.95,-66.41 1423.35,-55.7"/>
<polygon fill="black" stroke="black" points="1424.31,-59.07 1433,-53.01 1422.43,-52.33 1424.31,-59.07"/>
</g>
<!-- https://github.com/pointfreeco/swift&#45;custom&#45;dump&#45;&gt;https://github.com/pointfreeco/xctest&#45;dynamic&#45;overlay -->
<g id="edge19" class="edge">
<title>https://github.com/pointfreeco/swift&#45;custom&#45;dump&#45;&gt;https://github.com/pointfreeco/xctest&#45;dynamic&#45;overlay</title>
<path fill="none" stroke="black" d="M1524.5,-88.87C1524.5,-80.89 1524.5,-71.93 1524.5,-63.38"/>
<polygon fill="black" stroke="black" points="1528,-63.25 1524.5,-53.25 1521,-63.25 1528,-63.25"/>
</g>
<!-- https://github.com/apple/swift&#45;collections -->
<g id="node16" class="node">
<title>https://github.com/apple/swift&#45;collections</title>
<polygon fill="none" stroke="black" points="2306,-53 2063,-53 2063,0 2306,0 2306,-53"/>
<text text-anchor="middle" x="2184.5" y="-37.8" font-family="Times,serif" font-size="14.00">swift&#45;collections</text>
<text text-anchor="middle" x="2184.5" y="-22.8" font-family="Times,serif" font-size="14.00">https://github.com/apple/swift&#45;collections</text>
<text text-anchor="middle" x="2184.5" y="-7.8" font-family="Times,serif" font-size="14.00">1.0.2</text>
</g>
<!-- https://github.com/pointfreeco/swift&#45;identified&#45;collections&#45;&gt;https://github.com/apple/swift&#45;collections -->
<g id="edge21" class="edge">
<title>https://github.com/pointfreeco/swift&#45;identified&#45;collections&#45;&gt;https://github.com/apple/swift&#45;collections</title>
<path fill="none" stroke="black" d="M2184.5,-88.87C2184.5,-80.89 2184.5,-71.93 2184.5,-63.38"/>
<polygon fill="black" stroke="black" points="2188,-63.25 2184.5,-53.25 2181,-63.25 2188,-63.25"/>
</g>
<!-- https://github.com/pointfreeco/composable&#45;core&#45;location.git&#45;&gt;https://github.com/pointfreeco/swift&#45;composable&#45;architecture.git -->
<g id="edge25" class="edge">
<title>https://github.com/pointfreeco/composable&#45;core&#45;location.git&#45;&gt;https://github.com/pointfreeco/swift&#45;composable&#45;architecture.git</title>
<path fill="none" stroke="black" d="M1650.46,-266.87C1667.68,-257.26 1687.42,-246.25 1705.39,-236.24"/>
<polygon fill="black" stroke="black" points="1707.57,-239.03 1714.6,-231.1 1704.16,-232.91 1707.57,-239.03"/>
</g>
</g>
</svg>
