<?xml version="1.0" encoding="UTF-8" standalone="no"?>
<!DOCTYPE svg PUBLIC "-//W3C//DTD SVG 1.1//EN"
 "http://www.w3.org/Graphics/SVG/1.1/DTD/svg11.dtd">
<!-- Generated by graphviz version 5.0.0 (20220707.1540)
 -->
<!-- Title: DependenciesGraph Pages: 1 -->
<svg width="881pt" height="239pt"
 viewBox="0.00 0.00 880.50 239.00" xmlns="http://www.w3.org/2000/svg" xmlns:xlink="http://www.w3.org/1999/xlink">
<g id="graph0" class="graph" transform="scale(1 1) rotate(0) translate(4 235)">
<title>DependenciesGraph</title>
<polygon fill="white" stroke="transparent" points="-4,4 -4,-235 876.5,-235 876.5,4 -4,4"/>
<!-- /Users/runner/work/LunchPlaces/LunchPlaces/Packages/UIComponents -->
<g id="node1" class="node">
<title>/Users/runner/work/LunchPlaces/LunchPlaces/Packages/UIComponents</title>
<polygon fill="none" stroke="black" points="793,-231 385,-231 385,-178 793,-178 793,-231"/>
<text text-anchor="middle" x="589" y="-215.8" font-family="Times,serif" font-size="14.00">uicomponents</text>
<text text-anchor="middle" x="589" y="-200.8" font-family="Times,serif" font-size="14.00">/Users/runner/work/LunchPlaces/LunchPlaces/Packages/UIComponents</text>
<text text-anchor="middle" x="589" y="-185.8" font-family="Times,serif" font-size="14.00">unspecified</text>
</g>
<!-- /Users/runner/work/LunchPlaces/LunchPlaces/Packages/Localization -->
<g id="node2" class="node">
<title>/Users/runner/work/LunchPlaces/LunchPlaces/Packages/Localization</title>
<polygon fill="none" stroke="black" points="392,-142 0,-142 0,-89 392,-89 392,-142"/>
<text text-anchor="middle" x="196" y="-126.8" font-family="Times,serif" font-size="14.00">localization</text>
<text text-anchor="middle" x="196" y="-111.8" font-family="Times,serif" font-size="14.00">/Users/runner/work/LunchPlaces/LunchPlaces/Packages/Localization</text>
<text text-anchor="middle" x="196" y="-96.8" font-family="Times,serif" font-size="14.00">unspecified</text>
</g>
<!-- /Users/runner/work/LunchPlaces/LunchPlaces/Packages/UIComponents&#45;&gt;/Users/runner/work/LunchPlaces/LunchPlaces/Packages/Localization -->
<g id="edge1" class="edge">
<title>/Users/runner/work/LunchPlaces/LunchPlaces/Packages/UIComponents&#45;&gt;/Users/runner/work/LunchPlaces/LunchPlaces/Packages/Localization</title>
<path fill="none" stroke="black" d="M473.74,-177.98C425.85,-167.38 370.15,-155.05 321.26,-144.23"/>
<polygon fill="black" stroke="black" points="321.78,-140.76 311.26,-142.01 320.26,-147.59 321.78,-140.76"/>
</g>
<!-- /Users/runner/work/LunchPlaces/LunchPlaces/Packages/Mock -->
<g id="node3" class="node">
<title>/Users/runner/work/LunchPlaces/LunchPlaces/Packages/Mock</title>
<polygon fill="none" stroke="black" points="767.5,-142 410.5,-142 410.5,-89 767.5,-89 767.5,-142"/>
<text text-anchor="middle" x="589" y="-126.8" font-family="Times,serif" font-size="14.00">mock</text>
<text text-anchor="middle" x="589" y="-111.8" font-family="Times,serif" font-size="14.00">/Users/runner/work/LunchPlaces/LunchPlaces/Packages/Mock</text>
<text text-anchor="middle" x="589" y="-96.8" font-family="Times,serif" font-size="14.00">unspecified</text>
</g>
<!-- /Users/runner/work/LunchPlaces/LunchPlaces/Packages/UIComponents&#45;&gt;/Users/runner/work/LunchPlaces/LunchPlaces/Packages/Mock -->
<g id="edge2" class="edge">
<title>/Users/runner/work/LunchPlaces/LunchPlaces/Packages/UIComponents&#45;&gt;/Users/runner/work/LunchPlaces/LunchPlaces/Packages/Mock</title>
<path fill="none" stroke="black" d="M589,-177.87C589,-169.89 589,-160.93 589,-152.38"/>
<polygon fill="black" stroke="black" points="592.5,-152.25 589,-142.25 585.5,-152.25 592.5,-152.25"/>
</g>
<!-- /Users/runner/work/LunchPlaces/LunchPlaces/Packages/Model -->
<g id="node4" class="node">
<title>/Users/runner/work/LunchPlaces/LunchPlaces/Packages/Model</title>
<polygon fill="none" stroke="black" points="872.5,-53 511.5,-53 511.5,0 872.5,0 872.5,-53"/>
<text text-anchor="middle" x="692" y="-37.8" font-family="Times,serif" font-size="14.00">model</text>
<text text-anchor="middle" x="692" y="-22.8" font-family="Times,serif" font-size="14.00">/Users/runner/work/LunchPlaces/LunchPlaces/Packages/Model</text>
<text text-anchor="middle" x="692" y="-7.8" font-family="Times,serif" font-size="14.00">unspecified</text>
</g>
<!-- /Users/runner/work/LunchPlaces/LunchPlaces/Packages/UIComponents&#45;&gt;/Users/runner/work/LunchPlaces/LunchPlaces/Packages/Model -->
<g id="edge4" class="edge">
<title>/Users/runner/work/LunchPlaces/LunchPlaces/Packages/UIComponents&#45;&gt;/Users/runner/work/LunchPlaces/LunchPlaces/Packages/Model</title>
<path fill="none" stroke="black" d="M733.74,-177.81C750.64,-169.06 765.81,-157.43 777,-142 790.83,-122.93 787.71,-109.98 777,-89 771.06,-77.37 761.77,-67.42 751.49,-59.14"/>
<polygon fill="black" stroke="black" points="753.56,-56.32 743.46,-53.13 749.37,-61.92 753.56,-56.32"/>
</g>
<!-- /Users/runner/work/LunchPlaces/LunchPlaces/Packages/Mock&#45;&gt;/Users/runner/work/LunchPlaces/LunchPlaces/Packages/Model -->
<g id="edge3" class="edge">
<title>/Users/runner/work/LunchPlaces/LunchPlaces/Packages/Mock&#45;&gt;/Users/runner/work/LunchPlaces/LunchPlaces/Packages/Model</title>
<path fill="none" stroke="black" d="M619.35,-88.87C630.15,-79.75 642.45,-69.35 653.82,-59.75"/>
<polygon fill="black" stroke="black" points="656.13,-62.38 661.51,-53.25 651.62,-57.03 656.13,-62.38"/>
</g>
</g>
</svg>
