<?xml version="1.0" encoding="UTF-8" standalone="no"?>
<!DOCTYPE svg PUBLIC "-//W3C//DTD SVG 1.1//EN"
 "http://www.w3.org/Graphics/SVG/1.1/DTD/svg11.dtd">
<!-- Generated by graphviz version 5.0.0 (20220707.1540)
 -->
<!-- Title: DependenciesGraph Pages: 1 -->
<svg width="1013pt" height="150pt"
 viewBox="0.00 0.00 1013.00 150.00" xmlns="http://www.w3.org/2000/svg" xmlns:xlink="http://www.w3.org/1999/xlink">
<g id="graph0" class="graph" transform="scale(1 1) rotate(0) translate(4 146)">
<title>DependenciesGraph</title>
<polygon fill="white" stroke="transparent" points="-4,4 -4,-146 1009,-146 1009,4 -4,4"/>
<!-- /Users/runner/work/LunchPlaces/LunchPlaces/Packages/PlacesAPI -->
<g id="node1" class="node">
<title>/Users/runner/work/LunchPlaces/LunchPlaces/Packages/PlacesAPI</title>
<polygon fill="none" stroke="black" points="740,-142 359,-142 359,-89 740,-89 740,-142"/>
<text text-anchor="middle" x="549.5" y="-126.8" font-family="Times,serif" font-size="14.00">placesapi</text>
<text text-anchor="middle" x="549.5" y="-111.8" font-family="Times,serif" font-size="14.00">/Users/runner/work/LunchPlaces/LunchPlaces/Packages/PlacesAPI</text>
<text text-anchor="middle" x="549.5" y="-96.8" font-family="Times,serif" font-size="14.00">unspecified</text>
</g>
<!-- /Users/runner/work/LunchPlaces/LunchPlaces/Packages/Core -->
<g id="node2" class="node">
<title>/Users/runner/work/LunchPlaces/LunchPlaces/Packages/Core</title>
<polygon fill="none" stroke="black" points="351,-53 0,-53 0,0 351,0 351,-53"/>
<text text-anchor="middle" x="175.5" y="-37.8" font-family="Times,serif" font-size="14.00">core</text>
<text text-anchor="middle" x="175.5" y="-22.8" font-family="Times,serif" font-size="14.00">/Users/runner/work/LunchPlaces/LunchPlaces/Packages/Core</text>
<text text-anchor="middle" x="175.5" y="-7.8" font-family="Times,serif" font-size="14.00">unspecified</text>
</g>
<!-- /Users/runner/work/LunchPlaces/LunchPlaces/Packages/PlacesAPI&#45;&gt;/Users/runner/work/LunchPlaces/LunchPlaces/Packages/Core -->
<g id="edge1" class="edge">
<title>/Users/runner/work/LunchPlaces/LunchPlaces/Packages/PlacesAPI&#45;&gt;/Users/runner/work/LunchPlaces/LunchPlaces/Packages/Core</title>
<path fill="none" stroke="black" d="M439.81,-88.98C394.34,-78.41 341.46,-66.1 295,-55.3"/>
<polygon fill="black" stroke="black" points="295.72,-51.87 285.18,-53.01 294.13,-58.69 295.72,-51.87"/>
</g>
<!-- /Users/runner/work/LunchPlaces/LunchPlaces/Packages/Model -->
<g id="node3" class="node">
<title>/Users/runner/work/LunchPlaces/LunchPlaces/Packages/Model</title>
<polygon fill="none" stroke="black" points="730,-53 369,-53 369,0 730,0 730,-53"/>
<text text-anchor="middle" x="549.5" y="-37.8" font-family="Times,serif" font-size="14.00">model</text>
<text text-anchor="middle" x="549.5" y="-22.8" font-family="Times,serif" font-size="14.00">/Users/runner/work/LunchPlaces/LunchPlaces/Packages/Model</text>
<text text-anchor="middle" x="549.5" y="-7.8" font-family="Times,serif" font-size="14.00">unspecified</text>
</g>
<!-- /Users/runner/work/LunchPlaces/LunchPlaces/Packages/PlacesAPI&#45;&gt;/Users/runner/work/LunchPlaces/LunchPlaces/Packages/Model -->
<g id="edge2" class="edge">
<title>/Users/runner/work/LunchPlaces/LunchPlaces/Packages/PlacesAPI&#45;&gt;/Users/runner/work/LunchPlaces/LunchPlaces/Packages/Model</title>
<path fill="none" stroke="black" d="M549.5,-88.87C549.5,-80.89 549.5,-71.93 549.5,-63.38"/>
<polygon fill="black" stroke="black" points="553,-63.25 549.5,-53.25 546,-63.25 553,-63.25"/>
</g>
<!-- http://github.com/objcio/tiny&#45;networking.git -->
<g id="node4" class="node">
<title>http://github.com/objcio/tiny&#45;networking.git</title>
<polygon fill="none" stroke="black" points="1005,-53 748,-53 748,0 1005,0 1005,-53"/>
<text text-anchor="middle" x="876.5" y="-37.8" font-family="Times,serif" font-size="14.00">tiny&#45;networking</text>
<text text-anchor="middle" x="876.5" y="-22.8" font-family="Times,serif" font-size="14.00">http://github.com/objcio/tiny&#45;networking.git</text>
<text text-anchor="middle" x="876.5" y="-7.8" font-family="Times,serif" font-size="14.00">unspecified</text>
</g>
<!-- /Users/runner/work/LunchPlaces/LunchPlaces/Packages/PlacesAPI&#45;&gt;http://github.com/objcio/tiny&#45;networking.git -->
<g id="edge3" class="edge">
<title>/Users/runner/work/LunchPlaces/LunchPlaces/Packages/PlacesAPI&#45;&gt;http://github.com/objcio/tiny&#45;networking.git</title>
<path fill="none" stroke="black" d="M645.4,-88.98C684.75,-78.52 730.43,-66.36 770.75,-55.64"/>
<polygon fill="black" stroke="black" points="771.84,-58.97 780.6,-53.01 770.04,-52.2 771.84,-58.97"/>
</g>
</g>
</svg>
